<?xml version="1.0" standalone="no"?>
<!DOCTYPE svg PUBLIC "-//W3C//DTD SVG 1.1//EN" "http://www.w3.org/Graphics/SVG/1.1/DTD/svg11.dtd">
<svg xmlns="http://www.w3.org/2000/svg">
<metadata>Copyright (C) 2015 by original authors @ fontello.com</metadata>
<defs>
<font id="fontello" horiz-adv-x="1000" >
<font-face font-family="fontello" font-weight="400" font-stretch="normal" units-per-em="1000" ascent="850" descent="-150" />
<missing-glyph horiz-adv-x="1000" />
<glyph glyph-name="alert" unicode="&#xe800;" d="m824-89h-657c-58 0-109 30-138 79-28 50-28 109 0 159l329 569c29 50 80 80 137 80 58 0 109-30 138-80l328-569c29-50 29-109 0-158-28-50-80-80-137-80z m-329 841c-40 0-77-21-97-56l-329-570c-20-35-20-77 0-113s57-56 98-56h657c41 0 78 21 98 56 21 36 21 78 0 113l-329 570c-20 35-57 56-98 56z m398-628l-317 549c-17 29-47 46-81 46s-63-17-80-46l-317-549c-17-30-17-64 0-93 17-29 47-47 80-47h634c34 0 64 18 81 47 17 29 17 64 0 93z m-455 377c0 32 26 58 57 58 32 0 58-26 58-58v-186c0-32-26-57-58-57-31 0-57 25-57 57v186z m57-413c-32 0-58 27-58 59s26 59 58 59 59-27 59-59-26-59-59-59z" horiz-adv-x="1000" />
<glyph glyph-name="terms" unicode="&#xe801;" d="m720 535l-100 100c-14 13-39 24-59 24h-266c-25 0-46-21-46-46v-530c0-25 21-45 46-45h403c26 0 46 20 46 45v394c0 19-10 45-24 58z m-32-24h-79c-4 0-7 3-7 7v79l86-86z m10-434h-403c-4 0-7 3-7 6v530c0 4 3 7 7 7h266c1 0 1 0 2 0v-102c0-26 20-46 45-46h97v-388c0-4-3-7-7-7z m-344 395h131c11 0 20 9 20 19 0 11-9 20-20 20h-131c-11 0-20-9-20-20 0-10 9-19 20-19z m92-323c-7-3-16-4-26-4-9 0-18 1-25 3s-14 6-20 11c-5 5-9 11-13 19-3 8-4 18-4 31v101h-25v51h25v54h60v-54h50v-51h-50v-91c0-14 7-21 20-21 10 0 20 3 29 8v-49c-6-3-13-6-21-8z m187 6c-14-7-31-11-52-11-16 0-31 3-44 9-14 6-25 14-35 24-10 10-18 21-23 34-6 14-9 28-9 43v1c0 15 3 29 9 43 5 13 13 25 23 35 9 10 21 18 35 24 13 5 28 8 45 8 20 0 36-3 50-9 13-6 24-15 34-26l-36-40c-7 7-14 13-22 17-7 4-16 6-27 6-8 0-14-1-21-4-6-3-11-7-16-13-4-5-8-11-10-18-3-7-4-14-4-22v-1c0-8 1-16 4-23 2-7 6-14 10-19 5-5 11-9 17-12 7-3 14-5 23-5 10 0 18 2 26 6 8 4 15 10 22 17l36-36c-10-12-22-21-35-28z m-137 609c230 0 416-187 416-416s-186-417-416-417-416 187-416 417 187 416 416 416m0 59c-262 0-475-213-475-475s212-476 475-476 476 213 476 476-213 475-476 475l0 0z" horiz-adv-x="1000" />
<glyph glyph-name="approval" unicode="&#xe802;" d="m502 783c-237 0-430-193-430-430s193-430 430-430 430 193 430 430c0 0 61 0 61 0 0-271-220-491-491-491s-491 220-491 491 220 491 491 491l0 0c65 0 127-13 184-36 1 0-47-48-47-48-43 15-89 23-137 23m-204-351l-69-70 220-226 489 502-68 70-421-432-151 156z" horiz-adv-x="1000" />
<glyph glyph-name="cart" unicode="&#xe803;" d="m499 775c234 0 424-190 424-423s-190-424-424-424-423 190-423 424 190 423 423 423m0 61c-267 0-484-217-484-484s217-484 484-484 484 217 484 484-216 484-484 484l0 0z m207-564l66 198c3 10 1 16-2 19-7 10-21 10-24 10l-375 0-10 47c-3 12-10 22-27 22h-105c-11 0-17-5-17-15v-27c0-10 6-13 17-13h89l69-289c-11-11-17-28-17-44 0-34 27-66 62-66 33 0 58 31 62 50h132c4-19 24-50 62-50 34 0 62 29 62 64 0 34-21 64-62 64-17 0-37-9-47-23h-163c-11 18-28 24-44 25l-2 12h248c19 0 22 7 26 16z m-18-70c13 0 24-11 24-24 0-12-11-23-24-23-12 0-23 10-23 23 0 13 10 24 23 24z m-233-24c0-13-11-23-24-23-13 0-23 10-23 23 0 13 10 24 23 24 13 0 24-11 24-24z" horiz-adv-x="1000" />
<glyph glyph-name="collaspe" unicode="&#xe804;" d="m689 321l-370 0c-17 0-31 14-31 31 0 17 14 31 31 31l370 0c17 0 31-14 31-31 0-17-14-31-31-31l0 0z m-185 525c-273 0-494-221-494-494 0-273 221-494 494-494 273 0 494 221 494 494 0 273-221 494-494 494l0 0z" horiz-adv-x="1000" />
<glyph glyph-name="contact" unicode="&#xe805;" d="m498 779c237 0 429-193 429-429s-192-429-429-429-429 193-429 429 193 429 429 429m0 61c-271 0-490-219-490-490s220-490 490-490 490 219 490 490-219 490-490 490l0 0z m320-523h-50c0 163-133 296-296 296v50c191 0 346-155 346-346z m-346 260v-50c116 0 209-94 209-210h50c0 143-116 260-259 260z m299-391l-3 9c-6 19-27 39-47 44l-72 20c-20 6-48-2-62-16l-27-26c-95 26-170 100-195 196l26 26c14 14 22 42 16 62l-20 72c-5 20-25 41-44 48l-9 2c-19 7-46 0-61-14l-39-40c-7-6-11-26-11-26-2-125 47-245 135-333 88-88 207-137 331-136 1 0 22 5 29 12l39 39c14 14 21 42 14 61z" horiz-adv-x="1000" />
<glyph glyph-name="delivery" unicode="&#xe806;" d="m499 768c229 0 416-187 416-416s-187-416-416-416-417 186-417 416 187 416 417 416m0 59c-263 0-476-213-476-475s213-476 476-476 475 213 475 476-213 475-475 475l0 0z m186-557c-26 0-48-22-48-49s22-48 48-48c27 0 49 22 49 48s-22 49-49 49z m0-63c-7 0-14 7-14 14 0 8 7 15 14 15 8 0 15-7 15-15 0-7-7-14-15-14z m-4 264h-84c-6 0-11-6-11-12v-222c0-6 5-11 11-11h12c6 0 11 4 11 10 5 34 32 55 65 55s60-21 65-55c1-6 6-10 11-10h12c7 0 12 5 12 11v111c0 3-1 6-3 8l-93 111c-2 2-5 4-8 4z m-72-91v57c0 6 5 11 11 11h50c3 0 7-1 9-4l47-57c6-7 1-18-9-18h-97c-6-1-11 5-11 11z m-381-154h29c5 0 10 4 11 10 4 34 32 55 65 55s60-21 65-55c0-6 5-10 11-10h143c6 0 11 5 11 12v284c0 6-5 11-11 11h-324c-7 0-12-5-12-11v-285c0-6 5-11 12-11z m105 44c-27 0-49-22-49-49s22-48 49-48 48 22 48 48-22 49-48 49z m0-63c-8 0-14 7-14 14 0 8 6 15 14 15 8 0 14-7 14-15 0-7-6-14-14-14z" horiz-adv-x="1000" />
<glyph glyph-name="expand" unicode="&#xe807;" d="m689 320l-155 0 0-155c0-17-14-31-31-31-17 0-31 14-31 31l0 155-155 0c-18 0-31 14-31 31 0 17 13 31 31 31l155 0 0 155c0 18 14 31 31 31 17 0 31-13 31-31l0-155 155 0c18 0 31-14 31-31 0-17-13-31-31-31l0 0z m-186 528c-274 0-497-222-497-497 0-275 223-497 497-497 275 0 497 222 497 497 0 275-222 497-497 497l0 0z" horiz-adv-x="1000" />
<glyph glyph-name="faq" unicode="&#xe808;" d="m567 176l-41-18 54 276c3 16-3 31-16 40s-29 10-42 3l-101-57c-20-11-26-35-15-54 10-19 35-26 54-15l25 14-52-266c-3-14 3-29 14-38 7-6 16-9 25-9 6 0 11 1 16 3l111 49c21 8 30 32 21 52-9 20-33 29-53 20l0 0z m-26 375c15 0 29 6 40 17 11 10 17 25 17 40 0 15-6 29-17 40-10 11-25 17-40 17-15 0-30-6-40-17-11-10-17-25-17-40s6-30 17-40c10-11 25-17 40-17z m-40 235c239 0 433-194 433-433s-194-433-433-433-433 194-433 433 194 433 433 433m0 62c-273 0-495-222-495-495s222-495 495-495 495 222 495 495-222 495-495 495l0 0z" horiz-adv-x="1000" />
<glyph glyph-name="feedback" unicode="&#xe809;" d="m703 631h-408c-60 0-110-49-110-110v-252c0-61 50-110 110-110h260l124-125c4-4 10-6 16-6 3 0 6 1 8 2 8 3 14 11 14 20v110c54 7 96 53 96 109v252c0 61-49 110-110 110z m66-362c0-36-30-66-66-66h-8c-12 0-22-10-22-22v-78l-93 93c-5 4-10 7-16 7h-269c-36 0-66 29-66 66v252c0 36 30 66 66 66h408c36 0 66-30 66-66v-252z m-108 206h-324c-12 0-22-10-22-22s10-22 22-22h324c12 0 22 10 22 22s-10 22-22 22z m0-124h-324c-12 0-22-9-22-22 0-12 10-22 22-22h324c12 0 22 10 22 22 0 13-10 22-22 22z m-163 428c236 0 429-192 429-429s-192-428-429-428-429 192-429 428 193 429 429 429m0 62c-271 0-490-220-490-491s219-490 490-490 490 220 490 490-219 491-490 491l0 0z" horiz-adv-x="1000" />
<glyph glyph-name="globe" unicode="&#xe80a;" d="m949 543c-52 121-139 208-260 260-61 26-124 39-190 39-66 0-130-13-190-39-120-52-209-139-261-260-25-60-38-123-38-189 0-67 13-130 38-191 52-120 141-208 261-260 60-26 123-39 190-39s129 13 189 39c122 52 209 140 261 260 26 61 39 124 39 191 0 66-13 129-39 189z m-613 208c-42-53-73-121-93-204h-128c47 92 127 165 221 204z m-267-397c0 46 8 91 22 134h141c-7-45-11-90-11-134 0-44 4-89 11-134h-142c-14 43-21 88-21 134z m46-193h128c20-84 51-153 93-206-96 40-175 113-221 206z m354-233c-35 10-68 36-97 78-29 42-52 93-67 155h164l0-233 0 0z m0 292h-178c-7 47-10 92-10 134 0 44 3 89 11 134h177l0-268 0 0z m0 327h-164c16 61 39 112 68 154 30 41 61 67 96 77v-231l0 0z m414 0h-128c-20 83-51 151-93 204 94-39 174-112 221-204z m-354 231c35-10 66-36 96-77 29-41 52-93 68-154h-164v231z m0-290h177c8-44 11-89 11-134 0-42-3-87-10-134h-178v268z m0-560v233h164c-16-62-38-113-68-155s-60-68-96-78z m133 27c42 53 73 122 93 206h128c-46-93-125-166-221-206z m246 265h-141c7 45 10 90 10 134 0 44-3 89-10 134h140c14-43 22-88 22-134 0-46-7-91-21-134z" horiz-adv-x="1000" />
<glyph glyph-name="help" unicode="&#xe80b;" d="m496 109c-22 0-40-19-40-41v1c0-22 18-41 40-41s41 19 41 41v-1c0 22-19 41-41 41z m-161 336c0 0 0 0 0 0 22 0 40 17 40 40 0 0 1 32 17 64 20 40 56 60 108 60 49 0 85-13 106-40 16-21 21-51 13-83-10-40-44-74-77-108-41-42-83-84-83-141 0-23 18-41 40-41 22 0 41 18 41 41 0 24 29 54 59 84 39 40 82 84 98 145 15 56 5 111-28 152-24 33-74 72-168 72-106 0-157-57-181-105-24-49-25-95-25-100 0-22 17-40 40-40z m165 332c234 0 425-191 425-425s-191-425-425-425-425 191-425 425 191 425 425 425m0 61c-268 0-486-218-486-486s218-486 486-486 486 218 486 486-218 486-486 486l0 0z" horiz-adv-x="1000" />
<glyph glyph-name="location" unicode="&#xe80c;" d="m495 704c132 0 239-107 239-239s-239-467-239-467-238 335-238 467 107 239 238 239z m34-313c-40-19-88-1-107 40-18 40 0 88 40 107s89 0 107-40c19-41 1-89-40-107z m-36 381c230 0 417-187 417-417s-187-417-417-417-418 187-418 417 188 417 418 417m0 60c-264 0-477-214-477-477s213-477 477-477 477 214 477 477-214 477-477 477l0 0z" horiz-adv-x="1000" />
<glyph glyph-name="lock" unicode="&#xe80d;" d="m792 436h-18v84c0 156-124 286-279 289-4 0-12 0-16 0-155-3-279-133-279-289v-85h-18c-28 0-50-28-50-64v-423c0-35 22-64 50-64h610c28 0 50 29 50 64v423c0 36-22 65-50 65z m-137 0h-160-16-160v84c0 93 75 170 168 170s168-77 168-170v-84z m-11-441c-11-9-23-16-36-22-13-6-27-11-43-14-16-4-33-5-52-5-30 0-57 5-82 16-25 10-46 25-65 43-18 19-32 40-42 65-11 25-16 52-16 81v1c0 28 5 55 16 80 10 25 24 46 42 65 19 19 40 34 66 45 25 10 53 16 84 16 19 0 36-2 51-5 15-3 29-7 42-12 12-6 24-12 34-20 11-7 21-16 30-25l-56-64c-15 14-31 25-47 33-17 8-35 12-55 12-17 0-32-3-46-10-14-6-27-15-37-26s-18-25-24-40c-5-15-8-31-8-48v-1c0-17 2-33 8-49 6-15 14-28 24-39 10-12 22-21 36-27 14-7 30-10 47-10 23 0 42 4 58 12 16 9 31 20 47 34l56-56c-10-11-21-21-32-30z" horiz-adv-x="1000" />
<glyph glyph-name="maintance" unicode="&#xe80e;" d="m496 772c233 0 422-190 422-422s-189-422-422-422-422 189-422 422 189 422 422 422m0 60c-266 0-482-216-482-482s216-482 482-482 482 216 482 482-216 482-482 482l0 0z m248-320c-2 10-15 14-23 6l-62-62c-13-13-35-13-49 0l-28 29c-14 13-14 35 0 49l60 61c8 8 4 21-6 23-15 4-30 5-45 4-68-6-130-69-134-137-2-25 3-49 13-71l-215-185c-10-8-16-20-16-33-1-13 4-25 13-34l37-37c9-9 21-14 34-14 13 0 25 6 34 16l186 216c21-9 44-14 69-12 68 4 131 66 136 134 1 16 0 32-4 47z" horiz-adv-x="1000" />
<glyph glyph-name="messages-alt" unicode="&#xe80f;" d="m935 778h-873c-16 0-30-14-30-31v-559c0-17 14-31 30-31h468v-198c0-13 7-24 19-29 4-1 8-2 12-2 7 0 15 3 21 9l222 220h131c17 0 31 14 31 31v559c0 17-14 31-31 31l0 0z" horiz-adv-x="1000" />
<glyph glyph-name="messages" unicode="&#xe810;" d="m104 767l795 0c21 0 40-8 56-23 15-16 23-34 23-55l0-469c0-22-8-40-23-56-16-15-35-23-56-23l-474 0-241-234 0 234-80 0c-21 0-40 8-56 23-15 16-23 34-23 56l0 469c0 21 8 39 23 55 16 15 35 23 56 23" horiz-adv-x="1000" />
<glyph glyph-name="news" unicode="&#xe811;" d="m500 835c-268 0-485-190-485-424 0-134 71-253 182-331v-214l213 129c29-5 59-8 90-8 268 0 485 190 485 424 0 234-217 424-485 424z m0-799c-37 0-72 4-106 11l-148-88 2 145c-114 68-188 181-188 309 0 208 197 377 440 377s440-169 440-377c0-208-197-377-440-377z m1 30c-34 0-67 4-99 11l-19 6-107-69 5 109-13 6c-105 63-176 161-176 280 0 193 182 349 408 349s408-156 408-349c0-193-182-343-407-343z m151 254h-303c-17 0-31-14-31-30s14-30 31-30h302c17 0 31 13 31 30 0 17-14 30-30 30z m60 182h-424c-17 0-30-14-30-30s13-31 30-31h424c17 0 30 14 30 31 0 16-13 30-30 30z" horiz-adv-x="1000" />
<glyph glyph-name="password" unicode="&#xe812;" d="m499 835c-268 0-486-219-486-487v7c0-267 218-487 486-487s486 220 486 487v-6c0 267-219 486-486 486z m-4-726c-22 0-41-18-41-41v1c0-23 19-41 41-41s41 18 41 41v-1c0 23-18 41-41 41z m-163 341c0 0 0 0 0 0 22 0 41 17 41 39 0 0 0 33 17 65 20 41 56 62 109 62 50 0 87-14 107-41 17-21 22-51 14-84-11-40-45-75-79-109-40-42-83-85-83-143 0-23 18-41 40-41s41 18 41 41c0 24 29 54 61 86 39 39 83 84 99 145 15 57 4 114-28 155-26 33-76 72-171 72-107 0-158-57-183-106-24-49-25-96-25-102 0-22 17-39 40-39z" horiz-adv-x="1000" />
<glyph glyph-name="policy" unicode="&#xe813;" d="m729 544l-103 102c-15 14-41 25-61 25h-274c-26 0-48-21-48-47v-547c0-26 22-47 48-47h415c27 0 48 21 48 47v406c0 21-11 47-25 61z m-33-25h-82c-4 0-7 3-7 7v81l89-88z m10-448h-415c-4 0-7 3-7 6v547c0 3 3 6 7 6h274c0 0 1 0 2 0v-105c0-26 21-47 47-47h99v-401c0-3-3-6-7-6z m-355 407h136c11 0 20 9 20 20 0 11-9 20-20 20h-136c-11 0-20-9-20-20s9-20 20-20z m296-300h-135c-11 0-20-9-20-20 0-11 9-20 20-20h135c11 0 20 9 20 20 1 11-9 20-20 20z m0 245h-58c-11 0-20-9-20-20 0-11 9-20 20-20h58c12 0 21 9 21 20 0 11-10 20-21 20z m0-80h-58c-11 0-20-9-20-20 0-12 9-21 20-21h58c12 0 21 10 21 21 0 11-10 20-21 20z m0-82h-58c-11 0-20-9-20-20 0-11 9-20 20-20h58c12 0 21 9 21 20 0 11-10 20-21 20z m-99 18c-6-12-14-23-24-31-11-8-23-15-37-19-14-4-29-6-45-6h-48v-86h-63v286h117c17 0 32-2 46-7 13-5 24-12 34-20s17-20 22-32c5-12 7-25 7-40v-1c0-16-3-31-9-44z m-55 44c0 14-4 25-13 32-9 7-22 11-38 11h-48v-87h50c15 0 28 4 36 12 9 8 13 19 13 31l0 1 0 0z m5 458c237 0 431-194 431-431s-194-430-431-430-430 193-430 430 193 431 430 431m0 61c-272 0-492-220-492-492s220-492 492-492 492 220 492 492-220 492-492 492l0 0z" horiz-adv-x="1000" />
<glyph glyph-name="printshop" unicode="&#xe814;" d="m501 777c233 0 424-190 424-424s-191-424-424-424-424 190-424 424 190 424 424 424m0 60c-268 0-485-217-485-484s217-485 485-485 484 217 484 485-217 484-484 484l0 0z m14-233c-3 5-8 7-14 7s-10-2-13-7c-17-23-162-235-162-325 0-96 79-175 175-175 97 0 175 79 175 175 0 90-145 302-161 325z m-14-435c-2-12-13-20-24-20-1 0-3 0-4 1-84 15-107 98-108 140 0 13 10 24 23 24 0 0 1 0 1 0 13 0 24-10 24-23 0-4 3-82 68-94 14-3 22-15 20-28z" horiz-adv-x="1000" />
<glyph glyph-name="signout" unicode="&#xe815;" d="m499 302c-15 0-28 13-28 29l0 469c0 15 12 28 28 28l0 0c15 0 28-13 28-28l0-469c1-16-12-29-28-29l0 0z m0-436c-230 0-417 187-417 417 0 183 116 342 290 398 15 5 30-4 35-19 5-14-3-30-18-35-150-48-251-186-251-344 0-199 162-360 361-360s361 162 361 360c0 158-101 296-250 344-15 5-24 21-19 36 5 14 21 23 36 18 173-56 290-215 290-398 0-230-188-417-418-417z" horiz-adv-x="1000" />
<glyph glyph-name="shipment" unicode="&#xe816;" d="m500 773c233 0 422-189 422-422s-189-423-422-423-423 190-423 423 190 422 423 422m0 61c-267 0-483-217-483-483s216-483 483-483 482 216 482 483-216 483-482 483l0 0z m288-471c-7 11-21 15-32 9l-187-104c-6 7-14 13-22 18l163 91c11 6 15 20 9 31l-97 174c-6 11-20 15-31 9l-174-96c-11-7-15-21-9-32l91-163c-1 0-2 0-2 0-9 0-18-1-27-4l-121 218c-4 7-11 12-19 12l-94 5c-13 0-24-9-24-22-1-13 9-24 22-25l81-4 114-206c-13-12-23-28-28-46-7-25-4-52 9-75 17-32 51-51 87-51 16 0 33 4 48 12 23 13 40 34 47 60 5 18 5 36 0 53l186 104c12 6 16 21 10 32z m-291-215c-29 0-53 24-53 53s24 53 53 53c29 0 53-24 53-53s-24-53-53-53z" horiz-adv-x="1000" />
<glyph glyph-name="settings" unicode="&#xe817;" d="m530 346c-13 0-24 7-28 18-5 12-2 25 7 33 11 9 12 25 3 36-10 13-21 25-34 35-5 4-11 6-17 6-8 0-15-3-20-9-5-6-14-9-23-9-3 0-7 0-10 2-11 5-19 16-18 29 1 14-10 26-24 28-16 2-32 2-49 0-14-2-24-14-24-28 1-12-7-23-18-28-3-1-6-2-10-2-9 0-18 4-23 10-5 5-12 8-20 8-6 0-11-2-16-5-13-11-25-22-35-35-9-11-8-27 2-37 10-8 13-21 8-33-5-11-16-18-30-18-14 1-26-9-27-23-2-17-2-33 0-50 1-14 16-23 28-23h1c12 0 22-8 27-19 4-11 1-24-8-32-10-10-11-26-3-37 11-12 22-24 35-35 5-3 11-5 17-5 7 0 15 3 20 8 5 6 14 10 22 10 4 0 8-1 11-2 11-5 18-17 18-29-1-14 9-27 23-28 9-1 17-2 26-2 8 0 16 1 24 2 13 1 24 13 23 27 0 13 7 24 19 29 3 1 6 2 10 2 9 0 17-4 23-10 5-5 12-9 19-9 6 0 12 2 17 6 13 10 25 22 35 35 9 11 8 27-3 36-9 9-12 22-7 34 4 10 15 17 27 18l2 0c0 0 1 0 1 0l0 0c14 0 25 10 27 23 2 17 2 33 0 50-2 14-16 23-28 23z m-2-66c-24 0-46-15-56-37-9-22-4-48 13-65-8-9-16-18-25-25-11 11-27 17-43 17-8 0-15-2-22-4-22-9-37-31-37-55-12-1-24-1-35 0 0 24-15 46-37 56-7 3-14 4-22 4-16 0-32-6-43-17-9 8-17 16-25 25 17 17 22 42 13 64-9 23-31 38-55 38-1 12-1 23 0 35 25 1 47 15 56 37 9 22 4 48-13 65 8 9 16 17 25 25 11-11 27-17 43-17 8 0 15 1 22 4 22 9 36 31 37 54 12 1 23 1 35 0 0-24 14-45 37-55 7-3 14-4 22-4 16 0 32 6 43 17 9-8 17-16 24-25-16-17-21-43-12-65 9-22 30-36 54-37 2-12 2-23 1-35z m-187 101c-45 0-83-38-83-83 0-46 38-83 83-83 46 0 84 37 84 83 0 45-38 83-84 83z m0-136c-28 0-52 24-52 53 0 28 24 52 52 52 29 0 53-24 53-52 0-29-24-53-53-53z m349 262c-9 0-17-1-25-5-33-13-48-51-35-84 10-24 34-39 60-39 8 0 17 1 24 5 33 13 49 51 35 84-10 24-33 39-59 39z m14-99c-4-1-9-2-14-2-15 0-29 9-35 23-8 19 2 41 21 49 4 2 9 3 14 3 15 0 29-9 34-24 8-19-1-41-20-49z m131 16c-8 3-13 10-13 19 0 8 5 15 12 18l1 1c11 3 17 15 14 26-3 12-8 24-14 35-4 7-11 11-20 11-3 0-6-1-9-2-3-1-5-1-8-1-6 0-11 2-14 5-6 6-8 16-4 23 4 11 0 23-10 29-11 6-22 11-34 14-2 1-4 1-6 1-9 0-18-6-21-15-2-7-11-13-19-13-8 0-16 5-19 13-3 9-11 15-21 15-2 0-4 0-6-1-12-3-23-8-34-14-10-5-14-18-10-28 4-8 2-17-4-23-3-4-9-6-14-6-3 0-6 1-9 2-3 1-6 2-9 2-8 0-15-4-19-11-6-11-11-23-15-35-3-11 3-23 14-27 8-3 14-10 14-19 0-8-6-16-15-19-11-5-16-16-13-27 3-12 8-24 14-35 4-6 12-10 20-10 3 0 6 0 9 1l0 0c3 1 5 2 8 2 5 0 11-2 14-6 6-6 8-15 4-23-5-10-1-23 9-28 11-6 23-11 35-15 2 0 4-1 6-1 9 0 17 6 20 15 3 7 12 13 20 13 8 0 16-5 19-13 3-9 11-15 20-15 2 0 4 0 6 1 7 2 13 4 18 6 6 2 12 5 17 8 10 5 14 18 9 28-3 8-2 17 4 23 4 4 9 6 15 6 3 0 6-1 8-2 3-1 6-2 9-2l0 0c8 0 16 4 20 11 6 11 11 23 14 35 4 12-2 24-13 28z m-22-45c-5 2-10 2-16 2-12 0-25-5-33-13-13-13-18-32-12-49-3-2-6-3-10-4-3-2-7-3-11-4-7 16-24 27-42 27-18 0-35-11-43-27-7 2-14 5-21 9 6 17 2 36-11 48-9 9-21 14-33 14-6 0-11 0-16-2-3 7-6 14-9 21 17 9 28 25 28 43 0 18-11 35-27 42 2 8 5 15 9 22 5-2 10-3 15-3 13 0 25 5 34 14 13 12 17 31 11 48 7 4 14 7 21 9 8-16 24-27 43-27 18 0 35 11 42 27 8-3 15-5 21-9-6-17-2-36 11-49 9-9 21-14 34-14 5 0 10 1 15 3 4-7 7-14 9-21-16-8-27-25-27-43 0-18 10-35 27-43-3-7-6-14-9-21z m-316 394c234 0 424-190 424-424s-190-424-424-424-424 190-424 424 190 424 424 424m0 61c-268 0-485-217-485-485s217-485 485-485 485 217 485 485-217 485-485 485l0 0z" horiz-adv-x="1000" />
<glyph glyph-name="recieved" unicode="&#xe818;" d="m494-146c-238 0-432 194-432 432 0 188 121 354 300 411 16 5 32-3 37-19s-4-32-19-36c-155-50-259-193-259-356 0-206 167-373 373-373s374 167 374 373c0 163-104 306-259 356-16 5-24 21-19 36 5 16 21 24 36 19 180-57 301-223 301-411 0-238-194-432-433-432z m231 548c-13 13-33 13-46 0l-153-153v557c0 18-15 32-33 32s-32-14-32-32v-557l-153 153c-13 13-33 13-46 0-13-13-13-33 0-46l209-208c6-7 14-10 23-10s16 3 23 10l208 208c13 13 13 33 0 46z" horiz-adv-x="1000" />
<glyph glyph-name="track" unicode="&#xe819;" d="m19 749h113v-551h-113v551z m177 0h112v-551h-112v551z m177 0h48v-551h-48v551z m128 0h112v-551h-112v551z m241 0h112v-551h-112v551z m-64 0h48v-551h-48v551z m241 0h48v-551h-48v551z m-796-631v-160h-44v160h-61v41h167v-41h-62z m198-160l-43 64h-35v-64h-44v201h92c23 0 42-6 55-17 14-12 20-28 20-49v-1c0-16-4-29-12-39-8-11-18-18-31-23l49-72-51 0 0 0z m1 133c0 9-3 16-9 21-7 5-15 7-26 7h-44v-58h45c11 0 19 3 25 8 6 5 9 12 9 21v1l0 0z m223-133l-18 45h-85l-18-45h-45l86 202h40l86-202-46 0 0 0z m-61 150l-26-66h53l-27 66z m270-132c-5-5-11-8-18-12s-14-5-22-7c-7-1-16-2-26-2-15 0-28 3-41 8-13 5-23 13-33 22-9 9-16 20-21 33-5 12-8 26-8 40v1c0 14 3 28 8 40 5 13 12 24 21 33 9 10 20 17 33 23 13 5 27 8 43 8 9 0 18-1 25-3 8-1 15-3 21-6s12-6 18-10c5-3 10-8 15-12l-29-33c-7 7-15 13-24 17-8 4-17 6-27 6-8 0-16-2-23-5-7-3-14-8-19-14-5-6-9-12-12-20-3-7-4-15-4-24v0c0-9 1-17 4-25 3-7 7-14 12-20s11-10 18-13c7-4 15-5 24-5 11 0 21 2 29 6 8 4 16 10 23 17l29-28c-5-6-10-11-16-15z m163-18l-63 86-23-24v-62h-44v201h44v-88l82 88h53l-82-85 86-116-53 0 0 0z" horiz-adv-x="1000" />
</font>
</defs>
</svg>
